<svg xmlns="http://www.w3.org/2000/svg" width="512" height="512" viewBox="0 0 512 512">
  <rect width="512" height="512" rx="96" fill="#12001f"/>
  <path fill="#863bff" d="M291 68c9.6 0 15.2 10.9 9.6 18.7L222.3 195c-11.2 15.7 0 37.5 19.3 37.5h78.8c9.9 0 15.4 11.4 9.3 19.2L221 441.3c-7 8.9-21.2 3.9-21.2-7.3V334.2c0-13-10.6-23.7-23.7-23.7H97.3c-9.6 0-15.2-10.9-9.6-18.7L196 84.7c2.2-3.1 5.8-4.9 9.6-4.9H291z"/>
  <path fill="#b47fff" fill-opacity="0.35" d="M319.6 86.7C314 78.9 304 74 293.4 74H208c-5.5 0-10.7 2.6-14 7L85.6 289.3C79 297.4 84.8 309 95 309h82.8c7.4 0 13.4 6 13.4 13.4v103c0 13.7 16.6 20 25.2 9.7l114-148.3c7.5-9.7.7-23.8-11.5-23.8h-77.7c-22 0-33.5-25.7-19.4-42.6l97.8-113.7z"/>
</svg>
